<svg width="509" height="561" viewBox="0 0 509 561" fill="none" xmlns="http://www.w3.org/2000/svg">
<path d="M478.667 82.4667H381.599V60.0654C381.599 44.2214 375.307 29.0294 364.104 17.8254C352.901 6.62136 337.708 0.330688 321.864 0.330688H187.464C171.62 0.330688 156.428 6.62243 145.224 17.8254C134.02 29.0283 127.729 44.2214 127.729 60.0654V82.4667H30.6614C19.9895 82.4667 10.1307 88.1594 4.79736 97.3987C-0.53597 106.638 -0.53597 118.024 4.79736 127.263C10.1307 136.502 19.9907 142.195 30.6614 142.195H40.0676L71.8743 492.461V492.467C73.5774 511.065 82.1868 528.357 96.0103 540.92C109.833 553.488 127.865 560.415 146.541 560.336H363.074C381.752 560.414 399.782 553.487 413.605 540.92C427.428 528.357 436.042 511.065 437.741 492.467L469.252 142.2H478.658C489.33 142.2 499.189 136.507 504.522 127.268C509.855 118.028 509.855 106.643 504.522 97.4039C499.189 88.1643 489.329 82.4719 478.658 82.4719L478.667 82.4667ZM187.467 60.0654H321.867V82.4667H187.467V60.0654ZM377.947 487.012C377.249 494.731 370.764 500.632 363.015 500.6H146.481C138.731 500.631 132.247 494.73 131.549 487.012L100.039 142.199H409.305L377.947 487.012Z" fill="#990404"/>
</svg>
